<svg width="32" height="32" viewBox="0 0 32 32" fill="none" xmlns="http://www.w3.org/2000/svg">
<rect width="32" height="32" rx="16" fill="#4F23FF"/>
<mask id="mask0_536_2096" style="mask-type:alpha" maskUnits="userSpaceOnUse" x="6" y="6" width="20" height="20">
<rect x="6" y="6" width="20" height="20" fill="#D9D9D9"/>
</mask>
<g mask="url(#mask0_536_2096)">
<path d="M13.1459 8.41683L20.1667 15.4168C20.25 15.5002 20.309 15.5904 20.3438 15.6877C20.3785 15.7849 20.3959 15.8891 20.3959 16.0002C20.3959 16.1113 20.3785 16.2154 20.3438 16.3127C20.309 16.4099 20.25 16.5002 20.1667 16.5835L13.1459 23.6043C12.9514 23.7988 12.7084 23.896 12.4167 23.896C12.125 23.896 11.875 23.7918 11.6667 23.5835C11.4584 23.3752 11.3542 23.1321 11.3542 22.8543C11.3542 22.5766 11.4584 22.3335 11.6667 22.1252L17.7917 16.0002L11.6667 9.87516C11.4722 9.68072 11.375 9.44114 11.375 9.15641C11.375 8.87169 11.4792 8.62516 11.6875 8.41683C11.8959 8.2085 12.1389 8.10433 12.4167 8.10433C12.6945 8.10433 12.9375 8.2085 13.1459 8.41683Z" fill="white"/>
</g>
</svg>
