<svg width="44" height="44" viewBox="0 0 44 44" fill="none" xmlns="http://www.w3.org/2000/svg">
<circle cx="22" cy="22" r="22" fill="#4F23FF" fill-opacity="0.07"/>
<mask id="mask0_704_2756" style="mask-type:alpha" maskUnits="userSpaceOnUse" x="10" y="10" width="24" height="24">
<rect x="10" y="10" width="24" height="24" fill="#D9D9D9"/>
</mask>
<g mask="url(#mask0_704_2756)">
<path d="M15 31C14.45 31 13.9792 30.8042 13.5875 30.4125C13.1958 30.0208 13 29.55 13 29V15C13 14.45 13.1958 13.9792 13.5875 13.5875C13.9792 13.1958 14.45 13 15 13H19.2C19.4167 12.4 19.7792 11.9167 20.2875 11.55C20.7958 11.1833 21.3667 11 22 11C22.6333 11 23.2042 11.1833 23.7125 11.55C24.2208 11.9167 24.5833 12.4 24.8 13H29C29.55 13 30.0208 13.1958 30.4125 13.5875C30.8042 13.9792 31 14.45 31 15V29C31 29.55 30.8042 30.0208 30.4125 30.4125C30.0208 30.8042 29.55 31 29 31H15ZM18 27H23C23.2833 27 23.5208 26.9042 23.7125 26.7125C23.9042 26.5208 24 26.2833 24 26C24 25.7167 23.9042 25.4792 23.7125 25.2875C23.5208 25.0958 23.2833 25 23 25H18C17.7167 25 17.4792 25.0958 17.2875 25.2875C17.0958 25.4792 17 25.7167 17 26C17 26.2833 17.0958 26.5208 17.2875 26.7125C17.4792 26.9042 17.7167 27 18 27ZM18 23H26C26.2833 23 26.5208 22.9042 26.7125 22.7125C26.9042 22.5208 27 22.2833 27 22C27 21.7167 26.9042 21.4792 26.7125 21.2875C26.5208 21.0958 26.2833 21 26 21H18C17.7167 21 17.4792 21.0958 17.2875 21.2875C17.0958 21.4792 17 21.7167 17 22C17 22.2833 17.0958 22.5208 17.2875 22.7125C17.4792 22.9042 17.7167 23 18 23ZM18 19H26C26.2833 19 26.5208 18.9042 26.7125 18.7125C26.9042 18.5208 27 18.2833 27 18C27 17.7167 26.9042 17.4792 26.7125 17.2875C26.5208 17.0958 26.2833 17 26 17H18C17.7167 17 17.4792 17.0958 17.2875 17.2875C17.0958 17.4792 17 17.7167 17 18C17 18.2833 17.0958 18.5208 17.2875 18.7125C17.4792 18.9042 17.7167 19 18 19ZM22 14.25C22.2167 14.25 22.3958 14.1792 22.5375 14.0375C22.6792 13.8958 22.75 13.7167 22.75 13.5C22.75 13.2833 22.6792 13.1042 22.5375 12.9625C22.3958 12.8208 22.2167 12.75 22 12.75C21.7833 12.75 21.6042 12.8208 21.4625 12.9625C21.3208 13.1042 21.25 13.2833 21.25 13.5C21.25 13.7167 21.3208 13.8958 21.4625 14.0375C21.6042 14.1792 21.7833 14.25 22 14.25Z" fill="#4F23FF"/>
</g>
</svg>
