<svg width="32" height="32" viewBox="0 0 32 32" fill="none" xmlns="http://www.w3.org/2000/svg">
<rect x="0.5" y="0.5" width="31" height="31" rx="15.5" fill="white"/>
<rect x="0.5" y="0.5" width="31" height="31" rx="15.5" stroke="#4F23FF"/>
<mask id="mask0_585_1891" style="mask-type:alpha" maskUnits="userSpaceOnUse" x="6" y="6" width="20" height="20">
<rect x="6" y="6" width="20" height="20" fill="#D9D9D9"/>
</mask>
<g mask="url(#mask0_585_1891)">
<path d="M13.9583 18.625L21.0208 11.5625C21.1875 11.3958 21.3854 11.3125 21.6146 11.3125C21.8437 11.3125 22.0416 11.3958 22.2083 11.5625C22.375 11.7292 22.4583 11.9271 22.4583 12.1562C22.4583 12.3854 22.375 12.5833 22.2083 12.75L14.5416 20.4167C14.375 20.5833 14.1805 20.6667 13.9583 20.6667C13.7361 20.6667 13.5416 20.5833 13.375 20.4167L9.79164 16.8333C9.62497 16.6667 9.54511 16.4688 9.55205 16.2396C9.559 16.0104 9.6458 15.8125 9.81247 15.6458C9.97914 15.4792 10.1771 15.3958 10.4062 15.3958C10.6354 15.3958 10.8333 15.4792 11 15.6458L13.9583 18.625Z" fill="#4F23FF"/>
</g>
</svg>
