<svg width="117" height="118" viewBox="0 0 117 118" fill="none" xmlns="http://www.w3.org/2000/svg">
<path d="M99.6732 104.214L103.809 108.349C104.357 108.898 105.07 109.237 105.789 109.293C106.509 109.349 107.177 109.116 107.647 108.647C108.116 108.177 108.349 107.509 108.293 106.789C108.237 106.07 107.898 105.357 107.349 104.809L103.214 100.673C102.665 100.125 101.953 99.7854 101.233 99.7296C100.513 99.6738 99.8452 99.9062 99.3757 100.376C98.9062 100.845 98.6738 101.513 98.7296 102.233C98.7854 102.953 99.1248 103.665 99.6732 104.214Z" fill="#4F23FF" fill-opacity="0.77"/>
<path d="M107.569 90.1595H113.417C114.193 90.1595 114.936 89.8957 115.485 89.4262C116.033 88.9567 116.341 88.32 116.341 87.656C116.341 86.992 116.033 86.3552 115.485 85.8857C114.936 85.4162 114.193 85.1525 113.417 85.1525H107.569C106.793 85.1525 106.049 85.4162 105.501 85.8857C104.952 86.3552 104.644 86.992 104.644 87.656C104.644 88.32 104.952 88.9567 105.501 89.4262C106.049 89.8957 106.793 90.1595 107.569 90.1595Z" fill="#4F23FF" fill-opacity="0.77"/>
<path d="M89.1594 114.417L89.1594 108.569C89.1594 107.793 88.8957 107.049 88.4262 106.501C87.9567 105.952 87.3199 105.644 86.6559 105.644C85.9919 105.644 85.3552 105.952 84.8857 106.501C84.4162 107.049 84.1524 107.793 84.1524 108.569L84.1524 114.417C84.1524 115.193 84.4162 115.936 84.8857 116.485C85.3552 117.033 85.9919 117.341 86.6559 117.341C87.3199 117.341 87.9567 117.033 88.4262 116.485C88.8957 115.936 89.1594 115.193 89.1594 114.417Z" fill="#4F23FF" fill-opacity="0.77"/>
<path d="M17.0457 13.2792L12.9867 9.06861C12.4484 8.51025 11.7423 8.15782 11.0237 8.08885C10.3051 8.01988 9.6328 8.24001 9.15478 8.70083C8.67676 9.16164 8.43214 9.82539 8.47473 10.5461C8.51732 11.2667 8.84364 11.9853 9.3819 12.5436L13.4409 16.7542C13.9792 17.3126 14.6853 17.665 15.4039 17.734C16.1225 17.8029 16.7948 17.5828 17.2728 17.122C17.7508 16.6612 17.9955 15.9974 17.9529 15.2768C17.9103 14.5561 17.5839 13.8375 17.0457 13.2792Z" fill="#4F23FF" fill-opacity="0.77"/>
<path d="M8.89413 27.1864L3.04664 27.0792C2.27122 27.065 1.52272 27.3151 0.96581 27.7744C0.408898 28.2338 0.089192 28.8648 0.0770249 29.5287C0.0648578 30.1925 0.361227 30.8348 0.900931 31.3143C1.44063 31.7938 2.17947 32.0711 2.95489 32.0853L8.80238 32.1925C9.5778 32.2067 10.3263 31.9566 10.8832 31.4973C11.4401 31.0379 11.7598 30.4069 11.772 29.743C11.7842 29.0792 11.4878 28.4368 10.9481 27.9574C10.4084 27.4779 9.66955 27.2006 8.89413 27.1864Z" fill="#4F23FF" fill-opacity="0.77"/>
<path d="M27.7445 3.27016L27.6373 9.11764C27.6231 9.89306 27.8732 10.6416 28.3326 11.1985C28.792 11.7554 29.423 12.0751 30.0868 12.0873C30.7507 12.0994 31.393 11.8031 31.8725 11.2634C32.3519 10.7236 32.6293 9.98482 32.6435 9.20939L32.7507 3.36191C32.7649 2.58648 32.5148 1.83798 32.0554 1.28107C31.5961 0.724161 30.965 0.404456 30.3012 0.392289C29.6373 0.380122 28.995 0.676489 28.5155 1.21619C28.0361 1.7559 27.7587 2.49473 27.7445 3.27016Z" fill="#4F23FF" fill-opacity="0.77"/>
<path d="M51.7 66.3929L42.3786 57.0714C41.4506 56.1435 40.2691 55.6875 38.875 55.6875C37.4809 55.6875 36.2994 56.1435 35.3714 57.0714C34.4435 57.9994 33.9875 59.1809 33.9875 60.575C33.9875 61.9691 34.4435 63.1506 35.3714 64.0785L48.1964 76.9035C49.1839 77.891 50.3587 78.4 51.7 78.4C53.0413 78.4 54.2161 77.891 55.2035 76.9035L80.6285 51.4785C81.5565 50.5506 82.0125 49.3691 82.0125 47.975C82.0125 46.5809 81.5565 45.3994 80.6285 44.4714C79.7006 43.5435 78.5191 43.0875 77.125 43.0875C75.7309 43.0875 74.5494 43.5435 73.6214 44.4714L51.7 66.3929ZM58 103.5C51.8401 103.5 46.0578 102.331 40.6481 99.9972C35.2287 97.6587 30.5195 94.4874 26.5161 90.4839C22.5126 86.4805 19.3413 81.7713 17.0028 76.3519C14.6685 70.9422 13.5 65.1599 13.5 59C13.5 52.8401 14.6685 47.0578 17.0028 41.6481C19.3413 36.2287 22.5126 31.5195 26.5161 27.5161C30.5195 23.5126 35.2287 20.3413 40.6481 18.0028C46.0578 15.6685 51.8401 14.5 58 14.5C64.1599 14.5 69.9422 15.6685 75.3519 18.0028C80.7713 20.3413 85.4805 23.5126 89.4839 27.5161C93.4874 31.5195 96.6587 36.2287 98.9972 41.6481C101.331 47.0578 102.5 52.8401 102.5 59C102.5 65.1599 101.331 70.9422 98.9972 76.3519C96.6586 81.7713 93.4874 86.4805 89.4839 90.4839C85.4805 94.4874 80.7713 97.6586 75.3519 99.9972C69.9422 102.331 64.1599 103.5 58 103.5Z" fill="#28DC56" stroke="white"/>
</svg>
