<svg width="43" height="43" viewBox="0 0 43 43" fill="none" xmlns="http://www.w3.org/2000/svg">
<path d="M21.4995 0C9.62673 0 0 9.62576 0 21.4995C0 33.3742 9.62673 43 21.4995 43C33.3733 43 43 33.3742 43 21.4995C43 9.62576 33.3742 0 21.4995 0ZM21.4151 33.7722C19.8145 33.7722 18.7254 32.5938 18.7254 31.0224C18.7254 29.4208 19.8426 28.2726 21.4151 28.2726C23.0467 28.2726 24.1047 29.4208 24.1348 31.0224C24.1338 32.5938 23.0467 33.7722 21.4151 33.7722ZM25.7053 20.6221C24.3512 22.1197 23.8329 23.5476 23.8329 25.1918V25.3073C23.8329 26.0964 23.1933 26.738 22.4022 26.738H20.3881C19.6087 26.738 18.9739 26.1129 18.9584 25.3364L18.9487 24.8395C18.839 22.9749 19.4602 21.1035 21.1054 19.1292C22.275 17.7403 23.2263 16.5852 23.2263 15.3418C23.2263 14.0625 22.3867 13.2297 20.558 13.1569C19.8378 13.1569 19.0283 13.3151 18.2906 13.5801C17.9218 13.7131 17.5189 13.6898 17.1695 13.517C16.8211 13.3433 16.5571 13.0356 16.4396 12.6629L16.0591 11.4467C15.8368 10.7352 16.1989 9.97422 16.89 9.69565C18.178 9.17636 19.8786 8.77646 21.8004 8.77646C26.6264 8.77646 28.8171 11.4457 28.8171 14.4809C28.8181 17.2579 27.0972 19.0865 25.7053 20.6221Z" fill="#FBC112"/>
</svg>
