<svg width="32" height="32" viewBox="0 0 32 32" fill="none" xmlns="http://www.w3.org/2000/svg">
<rect width="32" height="32" rx="16" fill="#EDEDED"/>
<mask id="mask0_1068_4061" style="mask-type:alpha" maskUnits="userSpaceOnUse" x="6" y="6" width="20" height="20">
<rect x="6" y="6" width="20" height="20" fill="#D9D9D9"/>
</mask>
<g mask="url(#mask0_1068_4061)">
<path d="M11 24.3333C10.5416 24.3333 10.1493 24.1701 9.8229 23.8437C9.49651 23.5173 9.33331 23.1249 9.33331 22.6666V14.3333C9.33331 13.8749 9.49651 13.4826 9.8229 13.1562C10.1493 12.8298 10.5416 12.6666 11 12.6666H11.8333V10.9999C11.8333 9.84714 12.2396 8.8645 13.0521 8.052C13.8646 7.2395 14.8472 6.83325 16 6.83325C17.1528 6.83325 18.1354 7.2395 18.9479 8.052C19.7604 8.8645 20.1666 9.84714 20.1666 10.9999V12.6666H21C21.4583 12.6666 21.8507 12.8298 22.1771 13.1562C22.5035 13.4826 22.6666 13.8749 22.6666 14.3333V22.6666C22.6666 23.1249 22.5035 23.5173 22.1771 23.8437C21.8507 24.1701 21.4583 24.3333 21 24.3333H11ZM16 20.1666C16.4583 20.1666 16.8507 20.0034 17.1771 19.677C17.5035 19.3506 17.6666 18.9583 17.6666 18.4999C17.6666 18.0416 17.5035 17.6492 17.1771 17.3228C16.8507 16.9964 16.4583 16.8333 16 16.8333C15.5416 16.8333 15.1493 16.9964 14.8229 17.3228C14.4965 17.6492 14.3333 18.0416 14.3333 18.4999C14.3333 18.9583 14.4965 19.3506 14.8229 19.677C15.1493 20.0034 15.5416 20.1666 16 20.1666ZM13.5 12.6666H18.5V10.9999C18.5 10.3055 18.2569 9.7152 17.7708 9.22909C17.2847 8.74297 16.6944 8.49992 16 8.49992C15.3055 8.49992 14.7153 8.74297 14.2291 9.22909C13.743 9.7152 13.5 10.3055 13.5 10.9999V12.6666Z" fill="#4E4E4E"/>
</g>
</svg>
