<svg width="36" height="38" viewBox="0 0 36 38" fill="none" xmlns="http://www.w3.org/2000/svg">
<path d="M26.0594 37.5692C23.3996 37.5692 21.2709 36.7249 19.6732 35.0364C18.0778 33.3479 17.2811 31.0307 17.2811 28.0825V11.0775C17.2811 7.41386 18.0009 4.65116 19.4406 2.79047C20.8824 0.930898 23.145 0 26.2262 0C28.9124 0 31.074 0.745385 32.7134 2.23504C34.3549 3.72248 35.1757 5.86866 35.1757 8.67357V15.0277H27.9248V9.57558C27.9248 8.51805 27.7975 7.78933 27.543 7.38942C27.2884 6.98729 26.8495 6.78511 26.2262 6.78511C25.5766 6.78511 25.1311 7.01506 24.8919 7.47384C24.6516 7.93041 24.532 8.60247 24.532 9.49116V27.9936C24.532 28.9689 24.6725 29.6776 24.9534 30.122C25.2365 30.5663 25.6611 30.7885 26.2262 30.7885C27.3586 30.7885 27.9248 29.8576 27.9248 27.9936V21.3418H35.2635V28.2957C35.2635 34.4788 32.1955 37.5692 26.0594 37.5692Z" fill="#4F23FF"/>
<path d="M5.81123 37.227V25.0742L0 0.342133H7.21137L9.24793 12.837L11.2845 0.342133H18.4915L12.6846 25.0742V37.227H5.81123Z" fill="black"/>
<mask id="mask0_498_2892" style="mask-type:luminance" maskUnits="userSpaceOnUse" x="11" y="9" width="12" height="18">
<path d="M11.189 9.74219H22.7061V26.8049H11.189V9.74219Z" fill="white"/>
</mask>
<g mask="url(#mask0_498_2892)">
<mask id="mask1_498_2892" style="mask-type:luminance" maskUnits="userSpaceOnUse" x="9" y="8" width="16" height="20">
<path d="M9.47388 10.8575L22.3681 8.74576L24.9928 25.1687L12.0975 27.2804L9.47388 10.8575Z" fill="white"/>
</mask>
<g mask="url(#mask1_498_2892)">
<mask id="mask2_498_2892" style="mask-type:luminance" maskUnits="userSpaceOnUse" x="9" y="8" width="16" height="20">
<path d="M9.47388 10.8575L22.3681 8.74576L24.9928 25.1687L12.0975 27.2804L9.47388 10.8575Z" fill="white"/>
</mask>
<g mask="url(#mask2_498_2892)">
<mask id="mask3_498_2892" style="mask-type:luminance" maskUnits="userSpaceOnUse" x="9" y="8" width="16" height="20">
<path d="M9.47388 10.8575L22.3681 8.74576L24.9928 25.1687L12.0975 27.2804L9.47388 10.8575Z" fill="white"/>
</mask>
<g mask="url(#mask3_498_2892)">
<path d="M19.0258 9.86441L11.3711 18.3469L16.9212 18.4347L13.1553 26.5895L22.671 15.0721L17.0934 15.6975L19.0258 9.86441Z" fill="#E6E7E8"/>
</g>
</g>
</g>
</g>
<mask id="mask4_498_2892" style="mask-type:luminance" maskUnits="userSpaceOnUse" x="10" y="9" width="14" height="19">
<path d="M10.9081 9.17343H23.2679V27.0893H10.9081V9.17343Z" fill="white"/>
</mask>
<g mask="url(#mask4_498_2892)">
<mask id="mask5_498_2892" style="mask-type:luminance" maskUnits="userSpaceOnUse" x="9" y="8" width="16" height="20">
<path d="M9.47388 10.8575L22.3681 8.74576L24.9928 25.1687L12.0975 27.2804L9.47388 10.8575Z" fill="white"/>
</mask>
<g mask="url(#mask5_498_2892)">
<mask id="mask6_498_2892" style="mask-type:luminance" maskUnits="userSpaceOnUse" x="9" y="8" width="16" height="20">
<path d="M9.47388 10.8575L22.3681 8.74576L24.9928 25.1687L12.0975 27.2804L9.47388 10.8575Z" fill="white"/>
</mask>
<g mask="url(#mask6_498_2892)">
<mask id="mask7_498_2892" style="mask-type:luminance" maskUnits="userSpaceOnUse" x="9" y="8" width="16" height="20">
<path d="M9.47388 10.8575L22.3681 8.74576L24.9928 25.1687L12.0975 27.2804L9.47388 10.8575Z" fill="white"/>
</mask>
<g mask="url(#mask7_498_2892)">
<path d="M18.8019 9.67778C17.9427 10.632 17.0835 11.5796 16.231 12.5327C14.8539 14.0568 13.4768 15.5809 12.1008 17.1127C11.7869 17.4593 11.4676 17.8126 11.1538 18.1592C11.0935 18.228 10.7533 18.8223 11.0781 18.8279C12.6966 18.8512 14.3151 18.8812 15.9336 18.9057C16.1662 18.9068 16.3945 18.9145 16.6282 18.9157C16.5996 18.7768 16.5777 18.6357 16.5492 18.5024C15.4453 20.8808 14.348 23.2647 13.2441 25.643C13.0905 25.9829 12.9303 26.3173 12.7767 26.6572C12.7142 26.7927 12.6736 27.0227 12.8557 27.0716C13.0466 27.1249 13.2705 26.9049 13.3736 26.7761C14.4555 25.4775 15.5243 24.1745 16.5996 22.8759C18.3059 20.813 20.0111 18.749 21.7108 16.6862C22.1014 16.2085 22.4921 15.7386 22.8893 15.2598C23.0089 15.1154 23.2876 14.5455 22.8739 14.5933C21.2499 14.7744 19.6325 14.9599 18.0086 15.141C17.7726 15.1665 17.5367 15.1921 17.2953 15.2187C17.3634 15.3187 17.4369 15.4187 17.5038 15.512C18.0678 13.8057 18.6318 12.1061 19.1958 10.4009C19.2737 10.1577 19.3582 9.91439 19.4372 9.67889C19.5162 9.44227 19.3176 9.33785 19.1223 9.41561C18.8666 9.5167 18.6845 9.79553 18.6022 10.0521C18.0382 11.7573 17.4742 13.4569 16.9102 15.1632C16.8323 15.4054 16.7478 15.6486 16.6688 15.8852C16.6117 16.0519 16.7061 16.2007 16.8784 16.1785C18.5023 15.9985 20.1186 15.8119 21.7426 15.6309C21.9785 15.6053 22.2145 15.5809 22.457 15.5542C22.4537 15.3309 22.4438 15.1099 22.4405 14.8877C21.3663 16.1918 20.2898 17.4893 19.2211 18.7935C17.5159 20.8563 15.8096 22.9203 14.111 24.9832C13.7204 25.4597 13.3286 25.9307 12.9314 26.4095C13.1322 26.4484 13.333 26.4884 13.5283 26.5284C14.6245 24.1445 15.7295 21.7661 16.8257 19.3822C16.9793 19.0423 17.1395 18.7079 17.2931 18.368C17.3359 18.2747 17.4083 17.9548 17.2141 17.9537C15.5956 17.9303 13.9771 17.9003 12.3597 17.877C12.126 17.8759 11.8978 17.867 11.664 17.8659C11.641 18.0858 11.6125 18.3136 11.5894 18.5346C12.4475 17.5804 13.3078 16.6328 14.1659 15.6786C15.543 14.1545 16.9201 12.6293 18.2961 11.0986C18.6099 10.752 18.9292 10.3976 19.2441 10.051C19.3604 9.92772 19.5689 9.57225 19.3889 9.41784C19.209 9.26343 18.9061 9.56225 18.8019 9.67778Z" fill="#E6E7E8"/>
</g>
</g>
</g>
</g>
</svg>
