<svg width="44" height="44" viewBox="0 0 44 44" fill="none" xmlns="http://www.w3.org/2000/svg">
<circle cx="22" cy="22" r="22" fill="#33C558" fill-opacity="0.1"/>
<mask id="mask0_704_3144" style="mask-type:alpha" maskUnits="userSpaceOnUse" x="10" y="10" width="24" height="24">
<rect x="10" y="10" width="24" height="24" fill="#D9D9D9"/>
</mask>
<g mask="url(#mask0_704_3144)">
<path d="M17 28C16.7167 28 16.4792 27.9042 16.2875 27.7125C16.0958 27.5208 16 27.2833 16 27V25H29V16H31C31.2833 16 31.5208 16.0958 31.7125 16.2875C31.9042 16.4792 32 16.7167 32 17V29.575C32 30.025 31.7958 30.3375 31.3875 30.5125C30.9792 30.6875 30.6167 30.6167 30.3 30.3L28 28H17ZM16 23L13.7 25.3C13.3833 25.6167 13.0208 25.6875 12.6125 25.5125C12.2042 25.3375 12 25.025 12 24.575V13C12 12.7167 12.0958 12.4792 12.2875 12.2875C12.4792 12.0958 12.7167 12 13 12H26C26.2833 12 26.5208 12.0958 26.7125 12.2875C26.9042 12.4792 27 12.7167 27 13V22C27 22.2833 26.9042 22.5208 26.7125 22.7125C26.5208 22.9042 26.2833 23 26 23H16Z" fill="#33C558"/>
</g>
</svg>
