<svg width="14" height="14" viewBox="0 0 14 14" fill="none" xmlns="http://www.w3.org/2000/svg">
<path d="M6.99999 13.6663C6.07777 13.6663 5.21111 13.4913 4.39999 13.1413C3.58888 12.7913 2.88333 12.3163 2.28333 11.7163C1.68333 11.1163 1.20833 10.4108 0.858328 9.59967C0.508328 8.78856 0.333328 7.9219 0.333328 6.99967C0.333328 6.07745 0.508328 5.21079 0.858328 4.39967C1.20833 3.58856 1.68333 2.88301 2.28333 2.28301C2.88333 1.68301 3.58888 1.20801 4.39999 0.858008C5.21111 0.508008 6.07777 0.333008 6.99999 0.333008C7.92222 0.333008 8.78888 0.508008 9.59999 0.858008C10.4111 1.20801 11.1167 1.68301 11.7167 2.28301C12.3167 2.88301 12.7917 3.58856 13.1417 4.39967C13.4917 5.21079 13.6667 6.07745 13.6667 6.99967C13.6667 7.29967 13.65 7.59412 13.6167 7.88301C13.5833 8.1719 13.5278 8.45523 13.45 8.73301C13.2944 8.55523 13.1139 8.40523 12.9083 8.28301C12.7028 8.16079 12.4778 8.07745 12.2333 8.03301C12.2667 7.86634 12.2917 7.6969 12.3083 7.52467C12.325 7.35245 12.3333 7.17745 12.3333 6.99967C12.3333 5.51079 11.8167 4.24967 10.7833 3.21634C9.74999 2.18301 8.48888 1.66634 6.99999 1.66634C5.51111 1.66634 4.24999 2.18301 3.21666 3.21634C2.18333 4.24967 1.66666 5.51079 1.66666 6.99967C1.66666 8.48856 2.18333 9.74967 3.21666 10.783C4.24999 11.8163 5.51111 12.333 6.99999 12.333C7.56666 12.333 8.10833 12.2497 8.62499 12.083C9.14166 11.9163 9.61666 11.683 10.05 11.383C10.1833 11.5719 10.3472 11.7386 10.5417 11.883C10.7361 12.0275 10.9444 12.1386 11.1667 12.2163C10.6 12.6719 9.96388 13.0275 9.25833 13.283C8.55277 13.5386 7.79999 13.6663 6.99999 13.6663ZM11.8333 10.9997C11.6 10.9997 11.4028 10.9191 11.2417 10.758C11.0806 10.5969 11 10.3997 11 10.1663C11 9.93301 11.0806 9.73579 11.2417 9.57467C11.4028 9.41356 11.6 9.33301 11.8333 9.33301C12.0667 9.33301 12.2639 9.41356 12.425 9.57467C12.5861 9.73579 12.6667 9.93301 12.6667 10.1663C12.6667 10.3997 12.5861 10.5969 12.425 10.758C12.2639 10.9191 12.0667 10.9997 11.8333 10.9997ZM7.66666 6.73301L9.66666 8.73301C9.78888 8.85523 9.84999 9.01079 9.84999 9.19967C9.84999 9.38856 9.78888 9.54412 9.66666 9.66634C9.54444 9.78856 9.38888 9.84967 9.19999 9.84967C9.01111 9.84967 8.85555 9.78856 8.73333 9.66634L6.53333 7.46634C6.46666 7.39967 6.41666 7.32467 6.38333 7.24134C6.34999 7.15801 6.33333 7.0719 6.33333 6.98301V4.33301C6.33333 4.14412 6.39722 3.98579 6.52499 3.85801C6.65277 3.73023 6.81111 3.66634 6.99999 3.66634C7.18888 3.66634 7.34722 3.73023 7.47499 3.85801C7.60277 3.98579 7.66666 4.14412 7.66666 4.33301V6.73301Z" fill="#4F23FF"/>
</svg>
