<svg width="16" height="16" viewBox="0 0 16 16" fill="none" xmlns="http://www.w3.org/2000/svg">
<mask id="mask0_704_3852" style="mask-type:alpha" maskUnits="userSpaceOnUse" x="0" y="0" width="16" height="16">
<rect width="16" height="16" fill="#D9D9D9"/>
</mask>
<g mask="url(#mask0_704_3852)">
<path d="M7.96666 11.9997C8.19999 11.9997 8.39722 11.9191 8.55833 11.758C8.71944 11.5969 8.79999 11.3997 8.79999 11.1663C8.79999 10.933 8.71944 10.7358 8.55833 10.5747C8.39722 10.4136 8.19999 10.333 7.96666 10.333C7.73333 10.333 7.53611 10.4136 7.37499 10.5747C7.21388 10.7358 7.13333 10.933 7.13333 11.1663C7.13333 11.3997 7.21388 11.5969 7.37499 11.758C7.53611 11.9191 7.73333 11.9997 7.96666 11.9997ZM7.99999 14.6663C7.07777 14.6663 6.21111 14.4913 5.39999 14.1413C4.58888 13.7913 3.88333 13.3163 3.28333 12.7163C2.68333 12.1163 2.20833 11.4108 1.85833 10.5997C1.50833 9.78856 1.33333 8.9219 1.33333 7.99967C1.33333 7.07745 1.50833 6.21079 1.85833 5.39967C2.20833 4.58856 2.68333 3.88301 3.28333 3.28301C3.88333 2.68301 4.58888 2.20801 5.39999 1.85801C6.21111 1.50801 7.07777 1.33301 7.99999 1.33301C8.92222 1.33301 9.78888 1.50801 10.6 1.85801C11.4111 2.20801 12.1167 2.68301 12.7167 3.28301C13.3167 3.88301 13.7917 4.58856 14.1417 5.39967C14.4917 6.21079 14.6667 7.07745 14.6667 7.99967C14.6667 8.9219 14.4917 9.78856 14.1417 10.5997C13.7917 11.4108 13.3167 12.1163 12.7167 12.7163C12.1167 13.3163 11.4111 13.7913 10.6 14.1413C9.78888 14.4913 8.92222 14.6663 7.99999 14.6663ZM7.99999 13.333C9.48888 13.333 10.75 12.8163 11.7833 11.783C12.8167 10.7497 13.3333 9.48856 13.3333 7.99967C13.3333 6.51079 12.8167 5.24967 11.7833 4.21634C10.75 3.18301 9.48888 2.66634 7.99999 2.66634C6.51111 2.66634 5.24999 3.18301 4.21666 4.21634C3.18333 5.24967 2.66666 6.51079 2.66666 7.99967C2.66666 9.48856 3.18333 10.7497 4.21666 11.783C5.24999 12.8163 6.51111 13.333 7.99999 13.333ZM8.06666 5.13301C8.34444 5.13301 8.58611 5.2219 8.79166 5.39967C8.99722 5.57745 9.09999 5.79967 9.09999 6.06634C9.09999 6.31079 9.02499 6.52745 8.87499 6.71634C8.72499 6.90523 8.55555 7.08301 8.36666 7.24967C8.11111 7.4719 7.88611 7.71634 7.69166 7.98301C7.49722 8.24967 7.39999 8.54967 7.39999 8.88301C7.39999 9.03856 7.45833 9.16912 7.57499 9.27467C7.69166 9.38023 7.82777 9.43301 7.98333 9.43301C8.14999 9.43301 8.29166 9.37745 8.40833 9.26634C8.52499 9.15523 8.59999 9.01634 8.63333 8.84967C8.67777 8.61634 8.77777 8.40801 8.93333 8.22467C9.08888 8.04134 9.25555 7.86634 9.43333 7.69967C9.68888 7.45523 9.90833 7.18856 10.0917 6.89967C10.275 6.61079 10.3667 6.28856 10.3667 5.93301C10.3667 5.36634 10.1361 4.90245 9.67499 4.54134C9.21388 4.18023 8.67777 3.99967 8.06666 3.99967C7.64444 3.99967 7.24166 4.08856 6.85833 4.26634C6.47499 4.44412 6.18333 4.71634 5.98333 5.08301C5.90555 5.21634 5.88055 5.35801 5.90833 5.50801C5.93611 5.65801 6.01111 5.7719 6.13333 5.84967C6.28888 5.93856 6.44999 5.96634 6.61666 5.93301C6.78333 5.89967 6.92222 5.80523 7.03333 5.64967C7.15555 5.48301 7.30833 5.35523 7.49166 5.26634C7.67499 5.17745 7.86666 5.13301 8.06666 5.13301Z" fill="#4F23FF"/>
</g>
</svg>
