<svg width="44" height="44" viewBox="0 0 44 44" fill="none" xmlns="http://www.w3.org/2000/svg">
<circle cx="22" cy="22" r="22" fill="#F60000" fill-opacity="0.05"/>
<mask id="mask0_704_3075" style="mask-type:alpha" maskUnits="userSpaceOnUse" x="10" y="10" width="24" height="24">
<rect x="10" y="10" width="24" height="24" fill="#D9D9D9"/>
</mask>
<g mask="url(#mask0_704_3075)">
<path d="M25.85 22.425C26 22.325 26.075 22.1833 26.075 22C26.075 21.8167 26 21.675 25.85 21.575L20.275 18C20.1083 17.8833 19.9375 17.875 19.7625 17.975C19.5875 18.075 19.5 18.225 19.5 18.425V25.575C19.5 25.775 19.5875 25.925 19.7625 26.025C19.9375 26.125 20.1083 26.1167 20.275 26L25.85 22.425ZM15 31C14.45 31 13.9792 30.8042 13.5875 30.4125C13.1958 30.0208 13 29.55 13 29V15C13 14.45 13.1958 13.9792 13.5875 13.5875C13.9792 13.1958 14.45 13 15 13H29C29.55 13 30.0208 13.1958 30.4125 13.5875C30.8042 13.9792 31 14.45 31 15V29C31 29.55 30.8042 30.0208 30.4125 30.4125C30.0208 30.8042 29.55 31 29 31H15Z" fill="#F31F02"/>
</g>
</svg>
