<svg width="180" height="221" viewBox="0 0 180 221" fill="none" xmlns="http://www.w3.org/2000/svg">
<path d="M126.775 180.495C113.836 180.495 103.48 176.439 95.7073 168.327C87.9456 160.215 84.0701 149.082 84.0701 134.918V53.22C84.0701 35.6187 87.5719 22.3458 94.5756 13.4064C101.59 4.47234 112.597 -1.52588e-05 127.587 -1.52588e-05C140.655 -1.52588e-05 151.171 3.58107 159.146 10.7379C167.132 17.8841 171.125 28.195 171.125 41.6708V72.1981H135.85V46.0044C135.85 40.9237 135.231 37.4226 133.993 35.5013C132.754 33.5694 130.619 32.598 127.587 32.598C124.427 32.598 122.259 33.7028 121.096 35.9069C119.926 38.1004 119.345 41.3293 119.345 45.5988V134.491C119.345 139.177 120.028 142.582 121.394 144.717C122.772 146.851 124.838 147.919 127.587 147.919C133.096 147.919 135.85 143.446 135.85 134.491V102.533H171.552V135.943C171.552 165.648 156.626 180.495 126.775 180.495Z" fill="#4F23FF"/>
<path d="M28.2709 178.852V120.465L0 1.64378H35.0823L44.99 61.6737L54.8976 1.64378H89.9585L61.709 120.465V178.852H28.2709Z" fill="black"/>
<mask id="mask0_113_2694" style="mask-type:luminance" maskUnits="userSpaceOnUse" x="54" y="46" width="57" height="83">
<path d="M54.4326 46.8049H110.462V128.78H54.4326V46.8049Z" fill="white"/>
</mask>
<g mask="url(#mask0_113_2694)">
<mask id="mask1_113_2694" style="mask-type:luminance" maskUnits="userSpaceOnUse" x="46" y="42" width="76" height="90">
<path d="M46.0891 52.1632L108.818 42.0177L121.587 120.919L58.8526 131.065L46.0891 52.1632Z" fill="white"/>
</mask>
<g mask="url(#mask1_113_2694)">
<mask id="mask2_113_2694" style="mask-type:luminance" maskUnits="userSpaceOnUse" x="46" y="42" width="76" height="90">
<path d="M46.0891 52.1632L108.818 42.0177L121.587 120.919L58.8526 131.065L46.0891 52.1632Z" fill="white"/>
</mask>
<g mask="url(#mask2_113_2694)">
<mask id="mask3_113_2694" style="mask-type:luminance" maskUnits="userSpaceOnUse" x="46" y="42" width="76" height="90">
<path d="M46.0891 52.1632L108.818 42.0177L121.587 120.919L58.8526 131.065L46.0891 52.1632Z" fill="white"/>
</mask>
<g mask="url(#mask3_113_2694)">
<path d="M92.5577 47.392L55.3188 88.1449L82.3192 88.5665L63.9986 127.745L110.291 72.4116L83.1573 75.4163L92.5577 47.392Z" fill="#E6E7E8"/>
</g>
</g>
</g>
</g>
<mask id="mask4_113_2694" style="mask-type:luminance" maskUnits="userSpaceOnUse" x="53" y="44" width="61" height="87">
<path d="M53.0662 44.0724H113.195V130.147H53.0662V44.0724Z" fill="white"/>
</mask>
<g mask="url(#mask4_113_2694)">
<mask id="mask5_113_2694" style="mask-type:luminance" maskUnits="userSpaceOnUse" x="46" y="42" width="76" height="90">
<path d="M46.089 52.1632L108.818 42.0176L121.586 120.919L58.8525 131.065L46.089 52.1632Z" fill="white"/>
</mask>
<g mask="url(#mask5_113_2694)">
<mask id="mask6_113_2694" style="mask-type:luminance" maskUnits="userSpaceOnUse" x="46" y="42" width="76" height="90">
<path d="M46.089 52.1632L108.818 42.0176L121.586 120.919L58.8525 131.065L46.089 52.1632Z" fill="white"/>
</mask>
<g mask="url(#mask6_113_2694)">
<mask id="mask7_113_2694" style="mask-type:luminance" maskUnits="userSpaceOnUse" x="46" y="42" width="76" height="90">
<path d="M46.089 52.1632L108.818 42.0176L121.586 120.919L58.8525 131.065L46.089 52.1632Z" fill="white"/>
</mask>
<g mask="url(#mask7_113_2694)">
<path d="M91.4686 46.4954C87.2888 51.0798 83.109 55.6322 78.9613 60.2113C72.2619 67.5336 65.5625 74.8559 58.8685 82.2155C57.3418 83.8806 55.7884 85.5778 54.2617 87.2429C53.9681 87.5738 52.3132 90.4291 53.8933 90.4557C61.7671 90.5678 69.6409 90.7119 77.5146 90.8293C78.6463 90.8347 79.7567 90.872 80.8937 90.8774C80.7549 90.2102 80.6481 89.5324 80.5094 88.892C75.1392 100.318 69.801 111.771 64.4308 123.198C63.6835 124.831 62.9041 126.437 62.1568 128.07C61.8525 128.722 61.655 129.826 62.5411 130.061C63.47 130.317 64.5589 129.261 65.0607 128.642C70.3242 122.403 75.5235 116.142 80.7549 109.904C89.0557 99.9929 97.3512 90.0768 105.62 80.1661C107.52 77.8712 109.421 75.6137 111.353 73.3135C111.935 72.6197 113.291 69.8818 111.278 70.1113C103.378 70.9812 95.5096 71.8725 87.6091 72.7424C86.4614 72.8652 85.3137 72.9879 84.1393 73.116C84.4703 73.5963 84.8279 74.0767 85.1535 74.525C87.8974 66.3274 90.6412 58.1619 93.385 49.9697C93.764 48.8009 94.175 47.6321 94.5594 46.5007C94.9437 45.3639 93.9775 44.8623 93.0273 45.2358C91.7835 45.7215 90.8974 47.0611 90.497 48.2939C87.7532 56.4861 85.0094 64.6516 82.2656 72.8492C81.8866 74.0126 81.4756 75.1814 81.0912 76.3182C80.8136 77.1187 81.2727 77.8339 82.1108 77.7271C90.0113 76.8626 97.8744 75.9659 105.775 75.096C106.923 74.9733 108.07 74.8559 109.25 74.7278C109.234 73.6551 109.186 72.593 109.17 71.5256C103.944 77.7912 98.7071 84.0247 93.5078 90.2903C85.2123 100.201 76.9114 110.117 68.648 120.028C66.7476 122.317 64.8419 124.58 62.9095 126.88C63.8863 127.067 64.8632 127.259 65.8134 127.451C71.1462 115.998 76.5218 104.572 81.8546 93.1189C82.6019 91.4858 83.3813 89.8794 84.1286 88.2462C84.3368 87.7979 84.6891 86.2609 83.7443 86.2556C75.8705 86.1435 67.9967 85.9994 60.1283 85.8873C58.9913 85.882 57.8809 85.8393 56.7439 85.834C56.6318 86.8907 56.493 87.9847 56.3809 89.0468C60.5553 84.4624 64.7404 79.9099 68.9149 75.3255C75.6143 68.0032 82.3136 60.6756 89.0077 53.3213C90.5344 51.6562 92.0878 49.9537 93.6199 48.2886C94.1857 47.6962 95.1999 45.9883 94.3245 45.2465C93.449 44.5047 91.9757 45.9403 91.4686 46.4954Z" fill="#E6E7E8"/>
</g>
</g>
</g>
</g>
<path d="M27.3665 215.834H17.1813L15.2809 220.509H8.31998L18.9749 196.407H25.6797L36.356 220.509H29.2669L27.3665 215.834ZM25.3807 210.796L22.2846 203.089L19.1885 210.796H25.3807Z" fill="black"/>
<path d="M47.4204 221C44.8848 221 42.6161 220.466 40.6089 219.399C38.6018 218.332 37.0217 216.848 35.8686 214.937C34.7263 213.032 34.1604 210.87 34.1604 208.448C34.1604 206.046 34.7263 203.89 35.8686 201.979C37.0217 200.074 38.6018 198.585 40.6089 197.517C42.6161 196.45 44.8848 195.916 47.4204 195.916C49.6251 195.916 51.6109 196.311 53.3778 197.09C55.1394 197.875 56.6074 199.001 57.7764 200.463L53.4418 204.391C51.8724 202.513 49.9827 201.574 47.762 201.574C46.4489 201.574 45.2851 201.862 44.2602 202.427C43.2353 202.998 42.4346 203.81 41.8687 204.861C41.3136 205.902 41.036 207.097 41.036 208.448C41.036 209.814 41.3136 211.02 41.8687 212.055C42.4346 213.096 43.2353 213.907 44.2602 214.489C45.2851 215.06 46.4489 215.343 47.762 215.343C49.9827 215.343 51.8724 214.404 53.4418 212.525L57.7764 216.453C56.6074 217.921 55.1394 219.047 53.3778 219.826C51.6109 220.605 49.6251 221 47.4204 221Z" fill="black"/>
<path d="M74.0631 215.834H63.878L61.9776 220.509H55.0166L65.6716 196.407H72.3763L83.0526 220.509H75.9635L74.0631 215.834ZM72.0774 210.796L68.9812 203.089L65.8851 210.796H72.0774Z" fill="black"/>
<path d="M82.0954 196.407H93.4977C96.1294 196.407 98.4622 196.909 100.501 197.902C102.551 198.884 104.137 200.282 105.263 202.086C106.4 203.895 106.971 206.014 106.971 208.448C106.971 210.881 106.4 213.011 105.263 214.83C104.137 216.64 102.551 218.043 100.501 219.036C98.4622 220.018 96.1294 220.509 93.4977 220.509H82.0954V196.407ZM93.2201 215.065C95.2807 215.065 96.9408 214.484 98.1953 213.315C99.4444 212.151 100.074 210.529 100.074 208.448C100.074 206.387 99.4444 204.77 98.1953 203.602C96.9408 202.438 95.2807 201.851 93.2201 201.851H88.9069V215.065H93.2201Z" fill="black"/>
<path d="M126.993 215.236V220.509H107.648V196.407H126.545V201.68H114.395V205.736H125.114V210.838H114.395V215.236H126.993Z" fill="black"/>
<path d="M149.655 220.509L149.591 207.743L143.399 218.139H140.367L134.196 208.085V220.509H127.897V196.407H133.512L141.989 210.326L150.253 196.407H155.869L155.933 220.509H149.655Z" fill="black"/>
<path d="M170.776 211.863V220.509H163.943V211.756L154.761 196.407H161.957L167.679 205.971L173.381 196.407H180L170.776 211.863Z" fill="black"/>
</svg>
